<svg xmlns="http://www.w3.org/2000/svg" width="28" height="28" viewBox="0 0 28 28" fill="none">
  <path d="M3.25195 10.755L2.0599 10.3789L2.63748 11.8436L3.25195 10.755ZM5.74908 6.52028L6.36355 5.43174L4.84234 5.65986L5.74908 6.52028ZM4.25828 19.4991L5.33463 18.8635L4.25828 19.4991ZM3.24982 17.2462L2.63534 16.1576L2.05822 17.6238L3.24982 17.2462ZM5.74949 21.4794L4.84169 22.3387L6.36397 22.5679L5.74949 21.4794ZM16.4996 24.7262L16.7718 25.9462L17.7496 24.7262H16.4996ZM11.5001 24.7232H10.2501L11.2279 25.9432L11.5001 24.7232ZM24.7477 17.245L25.9398 17.6211L25.3622 16.1564L24.7477 17.245ZM22.2506 21.4797L21.6361 22.5683L23.1573 22.3401L22.2506 21.4797ZM23.7414 8.50092L24.8177 7.86534L23.7414 8.50092ZM24.7498 10.7538L25.3643 11.8423L25.9414 10.3761L24.7498 10.7538ZM22.2501 6.52056L23.1579 5.66125L21.6356 5.43202L22.2501 6.52056ZM11.5001 3.27385L11.2279 2.05385L10.2501 3.27385H11.5001ZM16.4996 3.27679H17.7496L16.7717 2.05679L16.4996 3.27679ZM11.5001 9.7667L10.8856 10.8552L12.7501 9.7667H11.5001ZM9.00036 14L9.61484 15.0885L9.61484 12.9115L9.00036 14ZM11.5001 18.2332H12.7501L10.8856 17.1447L11.5001 18.2332ZM16.4996 18.2333L17.114 17.1447L15.2496 18.2333H16.4996ZM18.9992 14L18.3847 12.9114L18.3847 15.0885L18.9992 14ZM16.4996 9.76673H15.2496L17.114 10.8553L16.4996 9.76673ZM4.44401 11.1312C4.87891 9.75303 5.62602 8.46593 6.65581 7.3807L4.84234 5.65986C3.54809 7.02378 2.60762 8.64317 2.0599 10.3789L4.44401 11.1312ZM5.33463 18.8635C4.95325 18.2176 4.65694 17.5487 4.44142 16.8686L2.05822 17.6238C2.33066 18.4835 2.70417 19.3256 3.18193 20.1347L5.33463 18.8635ZM6.65729 20.6201C6.16099 20.0958 5.71601 19.5094 5.33463 18.8635L3.18193 20.1347C3.65966 20.9437 4.21812 21.6799 4.84169 22.3387L6.65729 20.6201ZM16.2273 23.5062C14.7447 23.837 13.2215 23.8265 11.7723 23.5032L11.2279 25.9432C13.0281 26.3448 14.9231 26.3586 16.7718 25.9462L16.2273 23.5062ZM23.5556 16.8688C23.1207 18.247 22.3736 19.5341 21.3438 20.6193L23.1573 22.3401C24.4516 20.9762 25.392 19.3568 25.9398 17.6211L23.5556 16.8688ZM22.665 9.1365C23.0464 9.78235 23.3427 10.4513 23.5582 11.1314L25.9414 10.3761C25.669 9.51645 25.2955 8.67439 24.8177 7.86534L22.665 9.1365ZM21.3423 7.37986C21.8386 7.90418 22.2836 8.49062 22.665 9.1365L24.8177 7.86534C24.34 7.05627 23.7815 6.32003 23.1579 5.66125L21.3423 7.37986ZM11.7723 4.49385C13.2549 4.16303 14.7781 4.17349 16.2274 4.4968L16.7717 2.05679C14.9715 1.65518 13.0765 1.64136 11.2279 2.05385L11.7723 4.49385ZM12.7501 9.7667V3.27385H10.2501V9.7667H12.7501ZM12.1146 8.67817L6.36355 5.43174L5.1346 7.60882L10.8856 10.8552L12.1146 8.67817ZM8.38588 12.9115L2.63534 16.1576L3.86429 18.3347L9.61484 15.0885L8.38588 12.9115ZM9.61484 12.9115L3.86643 9.66651L2.63748 11.8436L8.38588 15.0885L9.61484 12.9115ZM12.7501 24.7232V18.2332H10.2501V24.7232H12.7501ZM10.8856 17.1447L5.13501 20.3908L6.36397 22.5679L12.1146 19.3217L10.8856 17.1447ZM22.8651 20.3912L17.114 17.1447L15.8851 19.3218L21.6361 22.5683L22.8651 20.3912ZM17.7496 24.7262V18.2333H15.2496V24.7262H17.7496ZM24.1353 9.66521L18.3847 12.9114L19.6137 15.0885L25.3643 11.8423L24.1353 9.66521ZM25.3622 16.1564L19.6137 12.9114L18.3847 15.0885L24.1332 18.3335L25.3622 16.1564ZM17.7496 9.76673V3.27679H15.2496V9.76673H17.7496ZM21.6356 5.43202L15.8851 8.67819L17.114 10.8553L22.8646 7.60909L21.6356 5.43202ZM14.7498 14C14.7498 14.4142 14.414 14.75 13.9998 14.75V17.25C15.7947 17.25 17.2498 15.7949 17.2498 14H14.7498ZM13.9998 14.75C13.5856 14.75 13.2498 14.4142 13.2498 14H10.7498C10.7498 15.7949 12.2049 17.25 13.9998 17.25V14.75ZM13.2498 14C13.2498 13.5858 13.5856 13.25 13.9998 13.25V10.75C12.2049 10.75 10.7498 12.2051 10.7498 14H13.2498ZM13.9998 13.25C14.414 13.25 14.7498 13.5858 14.7498 14H17.2498C17.2498 12.2051 15.7947 10.75 13.9998 10.75V13.25Z" fill="white"/>
</svg>