<svg xmlns="http://www.w3.org/2000/svg" width="32" height="32" viewBox="0 0 32 32" fill="none">
  <circle cx="16" cy="16" r="2.66667" stroke="#FAFBFC" stroke-width="2"/>
  <path d="M7.19806 7.83892C5.95841 9.17504 5.05826 10.7607 4.53413 12.4594L6.66654 13.6906C8.44432 14.717 8.44432 17.283 6.66654 18.3094L4.53185 19.5419C4.79213 20.3819 5.14941 21.2062 5.60768 22C6.06593 22.7937 6.60116 23.5153 7.1985 24.1607L9.33324 22.9282C11.111 21.9018 13.3332 23.1848 13.3332 25.2376L13.3332 27.7C15.0665 28.0954 16.8898 28.1087 18.6667 27.7032L18.6667 25.2377C18.6667 23.1849 20.8889 21.9019 22.6667 22.9283L24.8019 24.161C26.0415 22.8249 26.9417 21.2393 27.4658 19.5405L25.3333 18.3093C23.5556 17.2829 23.5556 14.7169 25.3333 13.6905L27.4681 12.458C27.2078 11.618 26.8505 10.7937 26.3923 9.99998C25.934 9.20624 25.3988 8.48466 24.8014 7.83922L22.6667 9.0717C20.8889 10.0981 18.6667 8.8151 18.6667 6.7623L18.6667 4.29998C16.9334 3.90451 15.1102 3.89126 13.3332 4.29677L13.3332 6.76226C13.3332 8.81507 11.111 10.0981 9.33324 9.07166L7.19806 7.83892Z" stroke="#FAFBFC" stroke-width="2" stroke-linejoin="round"/>
</svg>