<svg width="32" height="32" viewBox="0 0 32 32" fill="none" xmlns="http://www.w3.org/2000/svg">
<g clip-path="url(#clip0_3691_540)">
<circle cx="16" cy="16" r="2.49893" stroke="#FAFBFC" stroke-width="2"/>
<path d="M7.75168 8.35227C6.59 9.60435 5.74647 11.0902 5.2553 12.6822L7.25359 13.8359C8.91954 14.7977 8.91954 17.2023 7.25359 18.1641L5.25317 19.3191C5.49708 20.1063 5.83189 20.8788 6.26133 21.6226C6.69076 22.3664 7.19232 23.0426 7.75209 23.6474L9.75255 22.4924C11.4185 21.5306 13.5009 22.7329 13.5009 24.6566L13.5009 26.964C15.1252 27.3347 16.8338 27.3471 18.4989 26.9671L18.4989 24.6566C18.4989 22.733 20.5814 21.5307 22.2473 22.4925L24.2482 23.6477C25.4099 22.3956 26.2534 20.9098 26.7446 19.3178L24.7462 18.1641C23.0803 17.2022 23.0803 14.7976 24.7462 13.8358L26.7467 12.6808C26.5028 11.8936 26.168 11.1212 25.7386 10.3774C25.3091 9.63358 24.8075 8.95739 24.2478 8.35255L22.2473 9.50751C20.5814 10.4693 18.4989 9.26705 18.4989 7.34337L18.4989 5.03593C16.8747 4.66533 15.1661 4.65292 13.5009 5.03292L13.5009 7.34334C13.5009 9.26702 11.4185 10.4693 9.75255 9.50748L7.75168 8.35227Z" stroke="#FAFBFC" stroke-width="2" stroke-linejoin="round"/>
</g>
<defs>
<clipPath id="clip0_3691_540">
<rect width="32" height="32" fill="white"/>
</clipPath>
</defs>
</svg>
