<svg width="400" height="104" viewBox="0 0 400 104" fill="none" xmlns="http://www.w3.org/2000/svg">
<g clip-path="url(#clip0_2472_3270)">
<rect width="400" height="104" rx="8" fill="#791EFF"/>
<g filter="url(#filter0_f_2472_3270)">
<path d="M207.831 188.354L256.479 135.188L309.549 195L289.648 126.326L398 117.465L309.549 90.8819L398 -35.3889L289.648 37.7153V-124L234.366 11.1319L84 -75.2639L165.817 51.0069L84 117.465L192.352 108.604L207.831 188.354Z" fill="#FF8F1C"/>
<path d="M207.831 188.354L256.479 135.188L309.549 195L289.648 126.326L398 117.465L309.549 90.8819L398 -35.3889L289.648 37.7153V-124L234.366 11.1319L84 -75.2639L165.817 51.0069L84 117.465L192.352 108.604L207.831 188.354Z" stroke="#FF8F1C" stroke-width="2.5"/>
</g>
<g filter="url(#filter1_f_2472_3270)">
<path d="M169.915 207.688L216.239 157.188L266.775 214L247.824 148.771L351 140.354L266.775 115.104L351 -4.83334L247.824 64.6042V-89L195.183 39.3542L52 -42.7083L129.908 77.2292L52 140.354L155.176 131.937L169.915 207.688Z" fill="#FEDD00"/>
<path d="M169.915 207.688L216.239 157.188L266.775 214L247.824 148.771L351 140.354L266.775 115.104L351 -4.83334L247.824 64.6042V-89L195.183 39.3542L52 -42.7083L129.908 77.2292L52 140.354L155.176 131.937L169.915 207.688Z" stroke="#FEDD00" stroke-width="2.5"/>
</g>
<path d="M177.606 208.547L226.951 154.791L280.782 215.266L260.595 145.832L370.5 136.873L280.782 109.995L370.5 -17.6735L260.595 56.24V-107.266L204.521 29.3624L52 -57.99L134.989 69.6788L52 136.873L161.905 127.914L177.606 208.547Z" fill="#307FE2" stroke="#FAFBFC" stroke-opacity="0.41" stroke-width="4.03165"/>
<path d="M143.346 21.3498L123.182 37.3434L125.884 50.2168M143.346 21.3498L145.899 35.5146M143.346 21.3498L156.381 19.4198M153.56 78.0089L148.453 49.6794M153.56 78.0089L168.103 75.2583M153.56 78.0089L164.566 82.4188M153.56 78.0089L132.067 71.6648M128.587 63.0902L130.276 71.1361L132.067 71.6648M128.587 63.0902L148.453 49.6794M128.587 63.0902L125.884 50.2168M148.453 49.6794L145.899 35.5146M145.899 35.5146L125.884 50.2168M156.381 19.4198L157.973 26.9998M156.381 19.4198L185.101 15.1676M157.973 26.9998L151.472 28.0445L158.983 71.8302L167.069 70.3327M157.973 26.9998L186.619 22.3964M186.619 22.3964L219.733 17.0751L226.907 59.2515L183.242 67.3378M186.619 22.3964L185.101 15.1676M185.101 15.1676L224.818 9.28711L234.068 61.1084M167.069 70.3327L168.103 75.2583M167.069 70.3327L183.242 67.3378M168.103 75.2583L184.263 72.2021M184.263 72.2021L234.357 62.7278L234.068 61.1084M184.263 72.2021L183.242 67.3378M164.566 82.4188L246.972 66.7999M164.566 82.4188L167.606 96.9014M246.972 66.7999L234.068 61.1084M246.972 66.7999L250.012 81.2825L167.606 96.9014M167.606 96.9014L134.925 85.2809L132.067 71.6648" stroke="black" stroke-width="3.28851"/>
<path d="M123.182 37.3434L143.346 21.3498L156.381 19.4198L185.101 15.1676L224.818 9.28711L234.068 61.1084L246.972 66.7999L250.012 81.2825L167.606 96.9014L134.925 85.2809L132.067 71.6648L130.276 71.1361L128.587 63.0902L148.453 49.6794L153.56 78.0089L168.103 75.2583L167.069 70.3327L158.983 71.8302L151.472 28.0445L157.973 26.9998L156.381 19.4198L143.346 21.3498L145.899 35.5146L125.884 50.2168L123.182 37.3434Z" fill="#101820"/>
<path d="M143.346 21.3498L123.182 37.3434L125.884 50.2168L145.899 35.5146L143.346 21.3498ZM143.346 21.3498L156.381 19.4198M153.56 78.0089L148.453 49.6794L128.587 63.0902L130.276 71.1361L132.067 71.6648M153.56 78.0089L168.103 75.2583M153.56 78.0089L164.566 82.4188M153.56 78.0089L132.067 71.6648M156.381 19.4198L157.973 26.9998M156.381 19.4198L185.101 15.1676M157.973 26.9998L151.472 28.0445L158.983 71.8302L167.069 70.3327M157.973 26.9998L186.619 22.3964M186.619 22.3964L219.733 17.0751L226.907 59.2515L183.242 67.3378M186.619 22.3964L185.101 15.1676M185.101 15.1676L224.818 9.28711L234.068 61.1084M167.069 70.3327L168.103 75.2583M167.069 70.3327L183.242 67.3378M168.103 75.2583L184.263 72.2021M184.263 72.2021L234.357 62.7278L234.068 61.1084M184.263 72.2021L183.242 67.3378M164.566 82.4188L246.972 66.7999M164.566 82.4188L167.606 96.9014M246.972 66.7999L234.068 61.1084M246.972 66.7999L250.012 81.2825L167.606 96.9014M167.606 96.9014L134.925 85.2809L132.067 71.6648" stroke="black" stroke-width="3.28851"/>
<path d="M153.56 78.0098L168.103 75.2592L184.262 72.203L234.356 62.7287L234.067 61.1093L246.972 66.8008L164.566 82.4197L153.56 78.0098Z" fill="white" stroke="black" stroke-width="3.28851" stroke-linejoin="bevel"/>
<path d="M148.453 49.6802L153.56 78.0098L168.103 75.2592L167.069 70.3336L158.983 71.831L151.471 28.0454L157.972 27.0006L156.381 19.4206L143.346 21.3507L145.899 35.5154L148.453 49.6802Z" fill="#B2B4B4"/>
<path d="M226.906 59.2524L219.732 17.0759L186.618 22.3973L185.101 15.1684L224.818 9.28796L234.067 61.1093L234.356 62.7287L184.262 72.203L183.241 67.3386L226.906 59.2524Z" fill="#B2B4B4"/>
<path d="M143.346 21.3507L145.899 35.5154M143.346 21.3507L156.381 19.4206L157.972 27.0006L151.471 28.0454L158.983 71.831L167.069 70.3336L168.103 75.2592L153.56 78.0098M143.346 21.3507L153.56 78.0098M143.346 21.3507L148.453 49.6802M153.56 78.0098L148.453 49.6802M153.56 78.0098L145.899 35.5154M148.453 49.6802L145.899 35.5154M224.818 9.28796L185.101 15.1684L186.618 22.3973L219.732 17.0759L226.906 59.2524L183.241 67.3386L184.262 72.203L234.356 62.7287L234.067 61.1093L224.818 9.28796Z" stroke="black" stroke-width="3.28851"/>
<path d="M126.427 48.7984L124.091 37.6717L142.781 22.8476L144.999 35.1557L126.427 48.7984ZM132.3 70.8763L130.98 70.4867L129.505 63.4623L147.868 51.0664L152.514 76.8431L132.3 70.8763Z" fill="white" stroke="black" stroke-width="1.64425"/>
<path d="M155.845 80.8903L157.534 88.9362L134.17 73.6797L155.845 80.8903Z" fill="#B1B3B3"/>
<path d="M247.389 76.7931L168.202 91.7363L166.513 83.6904L245.7 68.7472L246.376 71.9655L183.28 83.5307L183.956 86.7491L247.052 75.1839L247.389 76.7931Z" fill="#B1B3B3"/>
<path d="M148.452 49.6791L128.586 63.09L125.884 50.2166L145.899 35.5144L148.452 49.6791Z" fill="#D9D9D9" stroke="black" stroke-width="3.28851"/>
<path d="M151.471 28.045L158.983 71.8307L167.069 70.3332L183.241 67.3383L226.906 59.252L219.733 17.0756L186.619 22.3969L157.973 27.0003L151.471 28.045Z" fill="white" stroke="black" stroke-width="3.28851"/>
<path d="M181.168 42.3524C180.796 42.418 180.534 42.5653 180.388 42.7902C180.253 42.997 180.198 43.2889 180.225 43.6586L182.509 43.2552C182.407 42.8828 182.26 42.6225 182.068 42.4804C181.86 42.327 181.557 42.2836 181.168 42.3524Z" fill="#101820"/>
<path d="M204.381 40.7423C204.172 40.6162 203.867 40.5869 203.474 40.6563C203.08 40.7258 202.805 40.8576 202.649 41.0481C202.579 41.1401 202.529 41.2458 202.501 41.3586C202.474 41.4713 202.47 41.5885 202.49 41.7028C202.509 41.8172 202.553 41.9261 202.617 42.0227C202.68 42.1192 202.764 42.2014 202.861 42.2638C203.069 42.39 203.374 42.4194 203.768 42.3499C204.162 42.2803 204.441 42.1477 204.592 41.9581C204.662 41.8661 204.713 41.7604 204.74 41.6476C204.768 41.5349 204.772 41.4177 204.752 41.3033C204.732 41.189 204.689 41.0801 204.625 40.9835C204.561 40.8869 204.478 40.8048 204.381 40.7423Z" fill="#101820"/>
<path fill-rule="evenodd" clip-rule="evenodd" d="M166.336 38.6159L204.992 31.7899C206.198 31.5769 207.439 31.8555 208.441 32.5645C209.444 33.2734 210.125 34.3546 210.337 35.5701L211.532 42.4451C211.743 43.6607 211.467 44.9111 210.763 45.9212C210.06 46.9313 208.987 47.6185 207.781 47.8315L169.125 54.6575C167.919 54.8704 166.678 54.5918 165.676 53.8829C164.673 53.174 163.992 52.0928 163.78 50.8772L162.585 44.0023C162.374 42.7867 162.65 41.5363 163.353 40.5262C164.057 39.516 165.13 38.8289 166.336 38.6159ZM176.049 48.8289L177.998 48.4846L176.763 41.3805L166.999 43.1047L168.234 50.2088L170.183 49.8646L169.267 44.5938L171.226 44.248L172.142 49.5188L174.089 49.1749L173.173 43.9041L175.133 43.5581L176.049 48.8289ZM180.537 45.1469L184.731 44.4065L184.573 43.5166C184.384 42.4269 183.984 41.6006 183.385 41.0598C182.777 40.5117 181.933 40.3289 180.877 40.5153C179.802 40.7051 179.06 41.1869 178.671 41.9489C178.287 42.6992 178.191 43.6457 178.385 44.7606C178.554 45.7322 178.958 46.549 179.586 47.1887C180.225 47.8399 181.251 48.0461 182.636 47.8016C182.973 47.7421 183.286 47.6725 183.566 47.5954C183.938 47.485 184.303 47.3509 184.659 47.194L184.743 47.1578L184.429 45.3486L184.295 45.404C183.975 45.5411 183.647 45.6582 183.313 45.7545C183.035 45.8308 182.745 45.8957 182.45 45.9478C181.851 46.0535 181.403 46.0275 181.116 45.8714C180.864 45.7348 180.669 45.4911 180.537 45.1469ZM189.716 42.2189L191.658 41.8759L191.638 41.759C191.551 41.2248 191.337 40.7199 191.013 40.2879C190.692 39.8655 190.255 39.5461 189.757 39.3683C189.244 39.179 188.657 39.1409 188.013 39.2546C186.959 39.4408 186.198 39.93 185.764 40.6917C185.33 41.4533 185.207 42.3997 185.4 43.5077C185.592 44.6157 186.022 45.4635 186.693 46.0376C187.364 46.6118 188.239 46.8115 189.295 46.6252C189.939 46.5114 190.477 46.2745 190.896 45.9207C191.305 45.5827 191.608 45.1328 191.768 44.6253C191.926 44.1079 191.957 43.5596 191.858 43.0274L191.838 42.9129L189.895 43.256L189.907 43.3649C189.954 43.7801 189.916 44.1097 189.795 44.3449C189.68 44.5677 189.413 44.7169 189.002 44.7895C188.489 44.8802 188.114 44.8047 187.887 44.5643C187.649 44.3116 187.468 43.8399 187.35 43.1633C187.233 42.4867 187.243 41.9841 187.383 41.6688C187.517 41.3712 187.847 41.1736 188.359 41.0832C188.77 41.0107 189.07 41.0597 189.253 41.2293C189.447 41.4089 189.594 41.7066 189.69 42.113L189.716 42.2189ZM197.938 44.9636L199.887 44.6194L198.652 37.5153L194.149 38.3105L193.72 35.8413L191.77 36.1855L193.435 45.7589L195.384 45.4147L194.468 40.1438L197.022 39.6928L197.938 44.9636ZM205.169 43.6869L207.979 43.1906L207.649 41.2925L206.788 41.4446L205.883 36.2385L200.49 37.1909L200.796 38.9537L204.24 38.3455L204.42 39.3767C204.239 39.2445 204.035 39.1475 203.819 39.0907C203.494 39.0041 203.08 39.0039 202.589 39.0907C202.058 39.1844 201.62 39.3834 201.285 39.6822C200.96 39.9679 200.723 40.342 200.603 40.7599C200.489 41.179 200.468 41.6185 200.542 42.0467C200.617 42.4749 200.785 42.8811 201.034 43.236C201.287 43.5879 201.636 43.8586 202.039 44.0157C202.454 44.1822 202.933 44.2192 203.464 44.1254C203.947 44.0402 204.334 43.8963 204.614 43.698C204.798 43.5688 204.959 43.4078 205.088 43.2222L205.169 43.6869Z" fill="#101820"/>
</g>
<defs>
<filter id="filter0_f_2472_3270" x="77.5781" y="-126.974" width="323.945" height="325.304" filterUnits="userSpaceOnUse" color-interpolation-filters="sRGB">
<feFlood flood-opacity="0" result="BackgroundImageFix"/>
<feBlend mode="normal" in="SourceGraphic" in2="BackgroundImageFix" result="shape"/>
<feGaussianBlur stdDeviation="1.25" result="effect1_foregroundBlur_2472_3270"/>
</filter>
<filter id="filter1_f_2472_3270" x="45.5713" y="-91.9746" width="308.952" height="309.306" filterUnits="userSpaceOnUse" color-interpolation-filters="sRGB">
<feFlood flood-opacity="0" result="BackgroundImageFix"/>
<feBlend mode="normal" in="SourceGraphic" in2="BackgroundImageFix" result="shape"/>
<feGaussianBlur stdDeviation="1.25" result="effect1_foregroundBlur_2472_3270"/>
</filter>
<clipPath id="clip0_2472_3270">
<rect width="400" height="104" rx="8" fill="white"/>
</clipPath>
</defs>
</svg>
