<svg width="28" height="28" viewBox="0 0 28 28" fill="none" xmlns="http://www.w3.org/2000/svg">
<path fill-rule="evenodd" clip-rule="evenodd" d="M13.9999 14.5C11.8343 14.5 9.88936 15.451 8.56272 16.9541L8.53467 18.5755L13.0347 24.0442H14.9651L19.4651 18.5755L19.4371 16.9541C18.1104 15.451 16.1655 14.5 13.9999 14.5ZM13.9999 21.2827L11.2166 17.9002C11.9992 17.3332 12.9602 17 13.9999 17C15.0396 17 16.0006 17.3332 16.7832 17.9002L13.9999 21.2827Z" fill="white"/>
<path d="M13.9999 6.25C9.88049 6.25 6.13292 7.82983 3.32546 10.4189L1.63062 8.5811C4.88158 5.58302 9.22808 3.75 13.9999 3.75C18.7717 3.75 23.1182 5.58302 26.3692 8.5811L24.6743 10.4189C21.8668 7.82983 18.1193 6.25 13.9999 6.25Z" fill="#666666"/>
<path d="M14.0002 11.25C11.0246 11.25 8.33334 12.4573 6.38556 14.4118L4.61475 12.6471C7.01241 10.2412 10.3333 8.75 14.0002 8.75C17.667 8.75 20.9879 10.2412 23.3856 12.6471L21.6147 14.4118C19.667 12.4573 16.9757 11.25 14.0002 11.25Z" fill="#666666"/>
</svg>
