<svg width="28" height="28" viewBox="0 0 28 28" fill="none" xmlns="http://www.w3.org/2000/svg">
<path d="M13.9999 6.25C9.88049 6.25 6.13292 7.82983 3.32546 10.4189L1.63062 8.5811C4.88158 5.58302 9.22808 3.75 13.9999 3.75C18.7717 3.75 23.1182 5.58302 26.3692 8.5811L24.6743 10.4189C21.8668 7.82983 18.1193 6.25 13.9999 6.25Z" fill="#666666"/>
<path d="M14 11.25C11.0245 11.25 8.33322 12.4573 6.38544 14.4118L4.61462 12.6471C7.01229 10.2412 10.3332 8.75 14 8.75C17.6669 8.75 20.9878 10.2412 23.3854 12.6471L21.6146 14.4118C19.6668 12.4573 16.9756 11.25 14 11.25Z" fill="#666666"/>
<path fill-rule="evenodd" clip-rule="evenodd" d="M14 14.5C11.8345 14.5 9.88948 15.451 8.56285 16.9541L8.53479 18.5755L13.0348 24.0442H14.9653L19.4653 18.5755L19.4372 16.9541C18.1106 15.451 16.1656 14.5 14 14.5ZM14 21.2827L11.2167 17.9002C11.9993 17.3332 12.9603 17 14 17C15.0397 17 16.0008 17.3332 16.7833 17.9002L14 21.2827Z" fill="#666666"/>
</svg>
