<svg xmlns="http://www.w3.org/2000/svg" width="120" height="120" viewBox="0 0 120 120" fill="none">
<circle cx="60" cy="60" r="60" fill="#FFDB00"/>
<path fill-rule="evenodd" clip-rule="evenodd" d="M67.0237 48.7143H91V57.5714H74.3596L91 74.2118L84.7358 80.4738L73.2857 69.0237V93H64.4286V76.3596L47.7882 93L41.5262 86.7358L52.9763 75.2857H29V66.4286H45.6404L29 49.7904L35.2642 43.5262L46.7143 54.9763V31H55.5714V47.6404L72.2096 31L78.4738 37.2642L67.0237 48.7143ZM59.9986 56.7755C57.1133 56.7755 54.7743 59.1145 54.7743 61.9998C54.7743 64.8852 57.1133 67.2242 59.9986 67.2242C62.8839 67.2242 65.223 64.8852 65.223 61.9998C65.223 59.1145 62.8839 56.7755 59.9986 56.7755Z" fill="black"/>
</svg>