<svg width="40" height="13" viewBox="0 0 40 13" fill="none" xmlns="http://www.w3.org/2000/svg">
<path d="M0.916063 12V10.464H2.42006V2.336H0.916063V0.799999H5.39606C6.8894 0.799999 8.03073 1.17867 8.82006 1.936C9.62006 2.69333 10.0201 3.83467 10.0201 5.36V7.456C10.0201 8.98133 9.62006 10.1227 8.82006 10.88C8.03073 11.6267 6.8894 12 5.39606 12H0.916063ZM4.16406 10.432H5.41206C6.38273 10.432 7.10273 10.1867 7.57206 9.696C8.0414 9.20533 8.27606 8.47467 8.27606 7.504V5.296C8.27606 4.31467 8.0414 3.584 7.57206 3.104C7.10273 2.624 6.38273 2.384 5.41206 2.384H4.16406V10.432ZM15.7167 12.224C14.9274 12.224 14.2234 12.064 13.6047 11.744C12.9967 11.4133 12.5167 10.944 12.1647 10.336C11.8127 9.728 11.6367 9.008 11.6367 8.176V7.936C11.6367 7.104 11.8127 6.38933 12.1647 5.792C12.5167 5.184 12.9967 4.71467 13.6047 4.384C14.2234 4.05333 14.9274 3.888 15.7167 3.888C16.506 3.888 17.21 4.05333 17.8287 4.384C18.4474 4.71467 18.9327 5.184 19.2847 5.792C19.6367 6.38933 19.8127 7.104 19.8127 7.936V8.176C19.8127 9.008 19.6367 9.728 19.2847 10.336C18.9327 10.944 18.4474 11.4133 17.8287 11.744C17.21 12.064 16.506 12.224 15.7167 12.224ZM15.7167 10.752C16.442 10.752 17.0287 10.5227 17.4767 10.064C17.9354 9.59467 18.1647 8.94933 18.1647 8.128V7.984C18.1647 7.16267 17.9407 6.52267 17.4927 6.064C17.0447 5.59467 16.4527 5.36 15.7167 5.36C15.002 5.36 14.4154 5.59467 13.9567 6.064C13.5087 6.52267 13.2847 7.16267 13.2847 7.984V8.128C13.2847 8.94933 13.5087 9.59467 13.9567 10.064C14.4154 10.5227 15.002 10.752 15.7167 10.752ZM21.8644 12V4.112H23.4804V5.296H23.7364C23.8858 4.976 24.1524 4.67733 24.5364 4.4C24.9204 4.12267 25.4911 3.984 26.2484 3.984C26.8458 3.984 27.3738 4.11733 27.8324 4.384C28.3018 4.65067 28.6698 5.02933 28.9364 5.52C29.2031 6 29.3364 6.58133 29.3364 7.264V12H27.6884V7.392C27.6884 6.70933 27.5178 6.208 27.1764 5.888C26.8351 5.55733 26.3658 5.392 25.7684 5.392C25.0858 5.392 24.5364 5.616 24.1204 6.064C23.7151 6.512 23.5124 7.16267 23.5124 8.016V12H21.8644ZM35.3242 12.224C34.5242 12.224 33.8255 12.0587 33.2282 11.728C32.6309 11.3867 32.1615 10.912 31.8202 10.304C31.4895 9.68533 31.3242 8.97067 31.3242 8.16V7.968C31.3242 7.14667 31.4895 6.432 31.8202 5.824C32.1509 5.20533 32.6095 4.73067 33.1962 4.4C33.7935 4.05867 34.4815 3.888 35.2602 3.888C36.0175 3.888 36.6789 4.05867 37.2442 4.4C37.8202 4.73067 38.2682 5.19467 38.5882 5.792C38.9082 6.38933 39.0682 7.088 39.0682 7.888V8.512H33.0042C33.0255 9.20533 33.2549 9.76 33.6922 10.176C34.1402 10.5813 34.6949 10.784 35.3562 10.784C35.9749 10.784 36.4389 10.6453 36.7482 10.368C37.0682 10.0907 37.3135 9.77067 37.4842 9.408L38.8442 10.112C38.6949 10.4107 38.4762 10.7253 38.1882 11.056C37.9109 11.3867 37.5429 11.664 37.0842 11.888C36.6255 12.112 36.0389 12.224 35.3242 12.224ZM33.0202 7.248H37.3882C37.3455 6.65067 37.1322 6.18667 36.7482 5.856C36.3642 5.51467 35.8629 5.344 35.2442 5.344C34.6255 5.344 34.1189 5.51467 33.7242 5.856C33.3402 6.18667 33.1055 6.65067 33.0202 7.248Z" fill="#2D8AFF"/>
</svg>
