<svg width="40" height="40" viewBox="0 0 40 40" fill="none" xmlns="http://www.w3.org/2000/svg">
<g clip-path="url(#clip0_1950_359)">
<path fill-rule="evenodd" clip-rule="evenodd" d="M13.6509 7.50001C14.1657 6.04352 15.5547 5 17.1875 5H23.125C24.7578 5 26.1468 6.04352 26.6616 7.50001H28.125C30.8864 7.50001 33.125 9.73859 33.125 12.5V30C33.125 32.7614 30.8864 35 28.125 35H13.125C10.3636 35 8.125 32.7614 8.125 30V12.5C8.125 9.73859 10.3636 7.50001 13.125 7.50001H13.6509ZM17.1815 7.50001H23.131C23.129 7.5 23.127 7.5 23.125 7.5H17.1875C17.1855 7.5 17.1835 7.5 17.1815 7.50001ZM13.125 10C11.7443 10 10.625 11.1193 10.625 12.5V30C10.625 31.3807 11.7443 32.5 13.125 32.5H28.125C29.5057 32.5 30.625 31.3807 30.625 30V12.5C30.625 11.1193 29.5057 10 28.125 10H13.125Z" fill="white" fill-opacity="0.4"/>
<path fill-rule="evenodd" clip-rule="evenodd" d="M20.625 13.75C21.3154 13.75 21.875 14.3096 21.875 15V21.9709C21.875 22.6612 21.3154 23.2209 20.625 23.2209C19.9346 23.2209 19.375 22.6612 19.375 21.9709V15C19.375 14.3096 19.9346 13.75 20.625 13.75ZM20.625 24.5134C21.3154 24.5134 21.875 25.073 21.875 25.7634V25.8392C21.875 26.5296 21.3154 27.0892 20.625 27.0892C19.9346 27.0892 19.375 26.5296 19.375 25.8392V25.7634C19.375 25.073 19.9346 24.5134 20.625 24.5134Z" fill="#E4002B"/>
</g>
<defs>
<clipPath id="clip0_1950_359">
<rect width="40" height="40" fill="white"/>
</clipPath>
</defs>
</svg>
