<svg width="21" height="20" viewBox="0 0 21 20" fill="none" xmlns="http://www.w3.org/2000/svg">
<g clip-path="url(#clip0_4015_71)">
<path d="M4.875 6.25V15C4.875 16.0355 5.71447 16.875 6.75 16.875H14.875C15.9105 16.875 16.75 16.0355 16.75 14.9999V6.2512C16.75 5.21567 15.9105 4.375 14.875 4.375H6.75C5.71447 4.375 4.875 5.21447 4.875 6.25Z" fill="#34C759"/>
<path d="M7.84375 4.37501H7.0625C6.02697 4.37501 5.1875 5.21447 5.1875 6.25001V15C5.1875 16.0355 6.02697 16.875 7.0625 16.875H12.1319H14.5625C15.598 16.875 16.4375 16.0355 16.4375 15V6.25001C16.4375 5.21447 15.598 4.37501 14.5625 4.37501H13.3125M7.84375 4.37501H10.8125H13.3125M7.84375 4.37501V4.37501C7.84375 3.68465 8.4034 3.125 9.09376 3.125H12.0625C12.7529 3.125 13.3125 3.68465 13.3125 4.37501V4.37501" stroke="white" stroke-width="1.75" stroke-linecap="round" stroke-linejoin="round"/>
</g>
<defs>
<clipPath id="clip0_4015_71">
<rect width="20" height="20" fill="white" transform="translate(0.5)"/>
</clipPath>
</defs>
</svg>
