<svg xmlns="http://www.w3.org/2000/svg" width="26" height="30" viewBox="0 0 26 30" fill="none">
  <g id="Icon Frame">
    <path id="Vector_2" fill-rule="evenodd" clip-rule="evenodd" d="M5.65088 2.50001C6.16568 1.04352 7.55473 0 9.18751 0H15.125C16.7578 0 18.1468 1.04352 18.6616 2.50001H20.125C22.8864 2.50001 25.125 4.73859 25.125 7.50001V25C25.125 27.7614 22.8864 30 20.125 30H5.125C2.36358 30 0.125 27.7614 0.125 25V7.50001C0.125 4.73859 2.36358 2.50001 5.125 2.50001H5.65088ZM9.18149 2.50001H15.131C15.129 2.5 15.127 2.5 15.125 2.5H9.18751C9.18551 2.5 9.1835 2.5 9.18149 2.50001ZM5.125 5.00001C3.74429 5.00001 2.625 6.1193 2.625 7.50001V25C2.625 26.3807 3.74429 27.5 5.125 27.5H20.125C21.5057 27.5 22.625 26.3807 22.625 25V7.50001C22.625 6.1193 21.5057 5.00001 20.125 5.00001H5.125Z" fill="white" stroke="white" stroke-width="2" stroke-linecap="round" stroke-linejoin="round"/>
    <path id="Vector" d="M0.75 7.5V25C0.75 27.0711 2.42893 28.75 4.5 28.75H20.75C22.8211 28.75 24.5 27.0709 24.5 24.9999V7.50241C24.5 5.43134 22.8211 3.75 20.75 3.75H4.5C2.42893 3.75 0.75 5.42893 0.75 7.5Z" fill="#34C759"/>
  </g>
</svg>