<svg xmlns="http://www.w3.org/2000/svg" width="25" height="30" viewBox="0 0 25 30" fill="none">
  <path fill-rule="evenodd" clip-rule="evenodd" d="M5.52588 2.50001C6.04068 1.04352 7.42973 0 9.06251 0H15C16.6328 0 18.0218 1.04352 18.5366 2.50001H20C22.7614 2.50001 25 4.73859 25 7.50001V25C25 27.7614 22.7614 30 20 30H5C2.23858 30 0 27.7614 0 25V7.50001C0 4.73859 2.23858 2.50001 5 2.50001H5.52588ZM9.05649 2.50001H15.006C15.004 2.5 15.002 2.5 15 2.5H9.06251C9.06051 2.5 9.0585 2.5 9.05649 2.50001ZM5 5.00001C3.61929 5.00001 2.5 6.1193 2.5 7.50001V25C2.5 26.3807 3.61929 27.5 5 27.5H20C21.3807 27.5 22.5 26.3807 22.5 25V7.50001C22.5 6.1193 21.3807 5.00001 20 5.00001H5Z" fill="white" stroke="white" stroke-width="2" stroke-linecap="round" stroke-linejoin="round"/>
    <path d="M5.625 28.75L19.375 28.75C21.4461 28.75 23.125 27.0711 23.125 25L23.125 8.75C23.125 6.67893 21.4248 5.07078 19.4744 5.7675C14.8145 7.43213 9.0068 11.2654 3.12337 11.7643C2.43548 11.8226 1.875 12.3778 1.875 13.0682L1.875 25C1.875 27.0711 3.55393 28.75 5.625 28.75Z" fill="#34C759"/>
</svg>