<svg xmlns="http://www.w3.org/2000/svg" width="32" height="32" viewBox="0 0 32 32" fill="none">
  <path d="M9.59375 26H7.66667C6.19391 26 5 24.8061 5 23.3333V6C5 5.44772 5.44772 5 6 5H9.59375M9.59375 26V19.125C9.59375 18.5727 10.0415 18.125 10.5937 18.125H20.4063C20.9585 18.125 21.4062 18.5727 21.4062 19.125V26M9.59375 26H21.4062M21.4062 26H23.3333C24.8061 26 26 24.8061 26 23.3333V9.59375L20.75 5H17.4687M9.59375 5V10.1903M9.59375 5H13.5312M13.5312 5V10.1903M13.5312 5H17.4687M17.4687 5V10.1903" stroke="#E4002B" stroke-width="2" stroke-linecap="round" stroke-linejoin="round"/>
</svg>