<svg xmlns="http://www.w3.org/2000/svg" width="32" height="32" viewBox="0 0 32 32" fill="none">
  <path d="M9.8125 27H7.66667C6.19391 27 5 25.8061 5 24.3333V6C5 5.44772 5.44772 5 6 5H9.8125M9.8125 27V19.75C9.8125 19.1977 10.2602 18.75 10.8125 18.75H21.1875C21.7398 18.75 22.1875 19.1977 22.1875 19.75V27M9.8125 27H22.1875M22.1875 27H24.3333C25.8061 27 27 25.8061 27 24.3333V9.8125L21.5 5H18.0625M9.8125 5V10.4375M9.8125 5H13.9375M13.9375 5V10.4375M13.9375 5H18.0625M18.0625 5V10.4375" stroke="#C5C8CF" stroke-width="2" stroke-linecap="round" stroke-linejoin="round"/>
</svg>