<svg xmlns="http://www.w3.org/2000/svg" width="21" height="20" viewBox="0 0 21 20" fill="none">
  <path fill-rule="evenodd" clip-rule="evenodd" d="M1.95258 7.55066C1.58968 7.13434 1.63299 6.50266 2.04931 6.13976C4.46046 4.03798 7.46949 2.98768 10.4754 2.9875L10.479 2.9875C13.4849 2.98768 16.4939 4.03798 18.9051 6.13976C19.3214 6.50266 19.3647 7.13434 19.0018 7.55066C18.6389 7.96698 18.0072 8.01028 17.5909 7.64739C15.5573 5.87473 13.0198 4.98765 10.4789 4.9875H10.4755C7.93466 4.98765 5.39708 5.87472 3.36349 7.64738C2.94717 8.01029 2.31549 7.96698 1.95258 7.55066ZM4.45153 10.6315C4.08153 10.2215 4.11399 9.58914 4.52402 9.21914C6.21289 7.69518 8.34571 6.93359 10.4753 6.93341L10.479 6.93341C12.6086 6.93359 14.7415 7.69518 16.4304 9.21914C16.8404 9.58914 16.8729 10.2215 16.5029 10.6315C16.1329 11.0415 15.5006 11.074 15.0905 10.704C13.7829 9.52408 12.1326 8.93355 10.4789 8.93341H10.4755C8.82184 8.93355 7.17147 9.52408 5.86388 10.704C5.45385 11.074 4.82152 11.0415 4.45153 10.6315ZM6.34176 12.965L6.97884 12.3279C7.94417 11.3626 9.21132 10.8795 10.4752 10.8793H10.479C11.743 10.8795 13.0102 11.3626 13.9756 12.3279L14.6126 12.965L11.2557 17.1052C11.0659 17.3394 10.7804 17.4754 10.4789 17.4754L10.4754 17.4754C10.1739 17.4754 9.88853 17.3394 9.69867 17.1052L6.34176 12.965ZM9.11598 13.211L10.4772 14.8898L11.8384 13.211C11.414 12.9899 10.9471 12.8794 10.4788 12.8793L10.4756 12.8793C10.0074 12.8794 9.5403 12.9899 9.11598 13.211Z" fill="#696A6C"/>
  <path fill-rule="evenodd" clip-rule="evenodd" d="M6.34177 12.965L6.97885 12.328C7.94418 11.3626 9.21133 10.8796 10.4753 10.8793H10.479C11.743 10.8796 13.0103 11.3626 13.9756 12.328L14.6127 12.965L11.2558 17.1052C11.0659 17.3394 10.7805 17.4755 10.479 17.4754L10.4754 17.4754C10.1739 17.4754 9.88854 17.3394 9.69868 17.1052L6.34177 12.965ZM9.11599 13.211L10.4772 14.8898L11.8384 13.211C11.4141 12.9899 10.9471 12.8794 10.4788 12.8793L10.4756 12.8793C10.0074 12.8795 9.54031 12.99 9.11599 13.211Z" fill="white"/>
</svg>