<svg xmlns="http://www.w3.org/2000/svg" width="21" height="20" viewBox="0 0 21 20" fill="none">
  <path fill-rule="evenodd" clip-rule="evenodd" d="M1.95256 7.55066C1.58966 7.13435 1.63297 6.50266 2.04928 6.13976C4.46044 4.03799 7.46947 2.98768 10.4753 2.9875L10.479 2.9875C13.4849 2.98768 16.4939 4.03799 18.9051 6.13976C19.3214 6.50266 19.3647 7.13435 19.0018 7.55066C18.6389 7.96698 18.0072 8.01029 17.5909 7.64739C15.5573 5.87473 13.0197 4.98765 10.4789 4.9875H10.4755C7.93464 4.98765 5.39706 5.87472 3.36346 7.64739C2.94714 8.01029 2.31546 7.96698 1.95256 7.55066ZM4.4515 10.6315C4.08151 10.2215 4.11397 9.58914 4.52399 9.21915C6.21287 7.69518 8.34569 6.9336 10.4753 6.93341L10.479 6.93341C12.6086 6.9336 14.7415 7.69518 16.4304 9.21915C16.8404 9.58914 16.8729 10.2215 16.5029 10.6315C16.1329 11.0415 15.5005 11.074 15.0905 10.704C13.7829 9.52408 12.1325 8.93355 10.4789 8.93341H10.4755C8.82182 8.93355 7.17145 9.52408 5.86386 10.704C5.45383 11.074 4.8215 11.0415 4.4515 10.6315ZM6.34174 12.965L6.97881 12.3279C7.94414 11.3626 9.21129 10.8795 10.4752 10.8793H10.479C11.7429 10.8795 13.0102 11.3626 13.9755 12.3279L14.6126 12.965L11.2557 17.1052C11.0658 17.3394 10.7804 17.4754 10.4789 17.4754H10.4754C10.1739 17.4754 9.88851 17.3394 9.69864 17.1052L6.34174 12.965ZM9.11596 13.211L10.4772 14.8898L11.8384 13.211C11.414 12.9899 10.947 12.8794 10.4788 12.8793L10.4756 12.8793C10.0074 12.8794 9.54028 12.9899 9.11596 13.211Z" fill="#696A6C"/>
</svg>