<svg xmlns="http://www.w3.org/2000/svg" width="26" height="30" viewBox="0 0 26 30" fill="none">
  <path fill-rule="evenodd" clip-rule="evenodd" d="M5.65088 2.50001C6.16568 1.04352 7.55473 0 9.18751 0H15.125C16.7578 0 18.1468 1.04352 18.6616 2.50001H20.125C22.8864 2.50001 25.125 4.73859 25.125 7.50001V25C25.125 27.7614 22.8864 30 20.125 30H5.125C2.36358 30 0.125 27.7614 0.125 25V7.50001C0.125 4.73859 2.36358 2.50001 5.125 2.50001H5.65088ZM9.18149 2.50001H15.131C15.129 2.5 15.127 2.5 15.125 2.5H9.18751C9.18551 2.5 9.1835 2.5 9.18149 2.50001ZM5.125 5.00001C3.74429 5.00001 2.625 6.1193 2.625 7.50001V25C2.625 26.3807 3.74429 27.5 5.125 27.5H20.125C21.5057 27.5 22.625 26.3807 22.625 25V7.50001C22.625 6.1193 21.5057 5.00001 20.125 5.00001H5.125Z" fill="white" fill-opacity="0.4"/>
  <path fill-rule="evenodd" clip-rule="evenodd" d="M12.625 8.75C13.3154 8.75 13.875 9.30964 13.875 10V16.9709C13.875 17.6612 13.3154 18.2209 12.625 18.2209C11.9346 18.2209 11.375 17.6612 11.375 16.9709V10C11.375 9.30964 11.9346 8.75 12.625 8.75ZM12.625 19.5134C13.3154 19.5134 13.875 20.073 13.875 20.7634V20.8392C13.875 21.5296 13.3154 22.0892 12.625 22.0892C11.9346 22.0892 11.375 21.5296 11.375 20.8392V20.7634C11.375 20.073 11.9346 19.5134 12.625 19.5134Z" fill="#E4002B"/>
</svg>