<svg width="32" height="32" viewBox="0 0 32 32" fill="none" xmlns="http://www.w3.org/2000/svg">
<g clip-path="url(#clip0_1405_596)">
<path d="M9.90909 27L22 27C23.6569 27 25 25.6569 25 24C25 22.3431 23.6491 21.0307 22.0338 21.3992C18.2178 22.27 13.4472 24.2756 8.63625 24.4433C8.28501 24.4556 8 24.7395 8 25.0909C8 26.1453 8.85473 27 9.90909 27Z" fill="#E4002B"/>
<path d="M11.75 7.00001H10.5C8.84315 7.00001 7.5 8.34316 7.5 10V24C7.5 25.6569 8.84315 27 10.5 27H18.6111H22.5C24.1569 27 25.5 25.6569 25.5 24V10C25.5 8.34316 24.1569 7.00001 22.5 7.00001H20.5M11.75 7.00001H16.5H20.5M11.75 7.00001V7.00001C11.75 5.89544 12.6454 5 13.75 5H18.5C19.6046 5 20.5 5.89544 20.5 7.00001V7.00001" stroke="white" stroke-width="2" stroke-linecap="round" stroke-linejoin="round"/>
</g>
<defs>
<clipPath id="clip0_1405_596">
<rect width="32" height="32" fill="white"/>
</clipPath>
</defs>
</svg>
