<svg xmlns="http://www.w3.org/2000/svg" width="26" height="30" viewBox="0 0 26 30" fill="none">
  <path fill-rule="evenodd" clip-rule="evenodd" d="M5.65088 2.50001C6.16568 1.04352 7.55473 0 9.18751 0H15.125C16.7578 0 18.1468 1.04352 18.6616 2.50001H20.125C22.8864 2.50001 25.125 4.73859 25.125 7.50001V25C25.125 27.7614 22.8864 30 20.125 30H5.125C2.36358 30 0.125 27.7614 0.125 25V7.50001C0.125 4.73859 2.36358 2.50001 5.125 2.50001H5.65088ZM9.18149 2.50001H15.131C15.129 2.5 15.127 2.5 15.125 2.5H9.18751C9.18551 2.5 9.1835 2.5 9.18149 2.50001ZM5.125 5.00001C3.74429 5.00001 2.625 6.1193 2.625 7.50001V25C2.625 26.3807 3.74429 27.5 5.125 27.5H20.125C21.5057 27.5 22.625 26.3807 22.625 25V7.50001C22.625 6.1193 21.5057 5.00001 20.125 5.00001H5.125Z" fill="white" stroke="white" stroke-width="2" stroke-linecap="round" stroke-linejoin="round"/>
   <path d="M5.75 28.75L19.5 28.75C21.5711 28.75 23.25 27.0711 23.25 25L23.25 16.25C23.25 14.1789 21.5614 12.5383 19.5423 12.9991C14.8923 14.0601 9.10845 16.4691 3.24939 16.784C2.56003 16.8211 2 17.3778 2 18.0682L2 25C2 27.0711 3.67893 28.75 5.75 28.75Z" fill="#34C759"/>
</svg>