<svg xmlns="http://www.w3.org/2000/svg" width="32" height="32" viewBox="0 0 32 32" fill="none">
  <path d="M3 11.1667V20.8333C3 22.3061 4.19391 23.5 5.66667 23.5H16.3333C17.8061 23.5 18.9393 22.2482 18.1257 21.0205C16.1779 18.0811 11.5344 15.1628 10.027 11.109C9.51367 9.72859 8.35155 8.5 6.87879 8.5H5.66667C4.19391 8.5 3 9.69391 3 11.1667Z" fill="#34C759"/>
  <path d="M9.5 8.5H5.66667C4.19391 8.5 3 9.69391 3 11.1667V20.8333C3 22.3061 4.19391 23.5 5.66667 23.5H18.8889M9.5 8.5H16H26.3333C27.8061 8.5 29 9.69391 29 11.1667V20.8333C29 22.3061 27.8061 23.5 26.3333 23.5H18.8889M9.5 8.5C9.5 15.25 18.8889 19 18.8889 23.5" stroke="#C5C8CF" stroke-width="2" stroke-linecap="round" stroke-linejoin="round"/>
</svg>