<svg xmlns="http://www.w3.org/2000/svg" width="26" height="30" viewBox="0 0 26 30" fill="none">
<path fill-rule="evenodd" clip-rule="evenodd" d="M12.4864 0.110433C12.9346 -0.0915811 13.4596 -0.0121308 13.8279 0.313456L20.9791 6.63459C22.4005 7.89101 22.2631 10.1486 20.6998 11.2234L15.1088 15.0672L20.8544 19.5816C22.3406 20.7494 22.3406 23.0007 20.8544 24.1684L13.7723 29.7329C13.3961 30.0286 12.884 30.0834 12.4536 29.8743C12.0232 29.6651 11.7501 29.2285 11.7501 28.75L11.7501 17.5719L5.02233 22.8579C4.47949 23.2844 3.69367 23.1901 3.26716 22.6473C2.84064 22.1045 2.93494 21.3186 3.47778 20.8921L11.1098 14.8956L3.37417 7.29808C2.88164 6.81434 2.87451 6.02292 3.35824 5.53039C3.84198 5.03785 4.63341 5.03072 5.12594 5.51446L11.7501 12.0203L11.7501 1.25002C11.7501 0.75841 12.0382 0.312447 12.4864 0.110433ZM14.2501 17.5719L19.3098 21.5474C19.5221 21.7142 19.5221 22.0358 19.3098 22.2027L14.2501 26.1782L14.2501 17.5719ZM14.2501 12.6237L14.2501 4.02326L19.3234 8.50772C19.5264 8.6872 19.5068 9.00972 19.2835 9.16325L14.2501 12.6237Z" fill="white"/>
<path fill-rule="evenodd" clip-rule="evenodd" d="M0.5 15C0.5 13.6193 1.61929 12.5 3 12.5H3.0625C4.44321 12.5 5.5625 13.6193 5.5625 15V15.0625C5.5625 16.4432 4.44321 17.5625 3.0625 17.5625H3C1.61929 17.5625 0.5 16.4432 0.5 15.0625V15Z" fill="white"/>
<path fill-rule="evenodd" clip-rule="evenodd" d="M20.5 15C20.5 13.6193 21.6193 12.5 23 12.5H23.0625C24.4432 12.5 25.5625 13.6193 25.5625 15V15.0625C25.5625 16.4432 24.4432 17.5625 23.0625 17.5625H23C21.6193 17.5625 20.5 16.4432 20.5 15.0625V15Z" fill="white"/>
</svg>