<svg xmlns="http://www.w3.org/2000/svg" width="19" height="30" viewBox="0 0 19 30" fill="none">
<path fill-rule="evenodd" clip-rule="evenodd" d="M9.4864 0.110433C9.93459 -0.0915811 10.4596 -0.0121308 10.8279 0.313456L17.9791 6.63459C19.4005 7.89101 19.2631 10.1486 17.6998 11.2234L12.1088 15.0672L17.8544 19.5816C19.3406 20.7494 19.3406 23.0007 17.8544 24.1684L10.7723 29.7329C10.3961 30.0286 9.88402 30.0834 9.45363 29.8743C9.02325 29.6651 8.75005 29.2285 8.75005 28.75L8.75005 17.5719L2.02233 22.8579C1.47949 23.2844 0.693673 23.1901 0.267156 22.6473C-0.159361 22.1045 -0.0650623 21.3186 0.477777 20.8921L8.10978 14.8956L0.374169 7.29808C-0.118364 6.81434 -0.125494 6.02292 0.358244 5.53039C0.841982 5.03785 1.63341 5.03072 2.12594 5.51446L8.75005 12.0203L8.75005 1.25002C8.75005 0.75841 9.03821 0.312447 9.4864 0.110433ZM11.2501 17.5719L16.3098 21.5474C16.5221 21.7142 16.5221 22.0358 16.3098 22.2027L11.2501 26.1782L11.2501 17.5719ZM11.2501 12.6237L11.2501 4.02326L16.3234 8.50772C16.5264 8.6872 16.5068 9.00972 16.2835 9.16325L11.2501 12.6237Z" fill="white"/>
</svg>