<svg xmlns="http://www.w3.org/2000/svg" width="21" height="33" viewBox="0 0 21 33" fill="none">
<path fill-rule="evenodd" clip-rule="evenodd" d="M11.4863 1.11043C11.9345 0.908419 12.4594 0.987869 12.8278 1.31346L19.979 7.63459C21.4004 8.89101 21.263 11.1486 19.6997 12.2234L14.1087 16.0672L19.8543 20.5816C21.3405 21.7494 21.3405 24.0007 19.8543 25.1684L12.7722 30.7329C12.3959 31.0286 11.8839 31.0834 11.4535 30.8743C11.0231 30.6651 10.7499 30.2285 10.7499 29.75L10.7499 18.5719L4.02221 23.8579C3.47937 24.2844 2.69355 24.1901 2.26703 23.6473C1.84052 23.1045 1.93482 22.3186 2.47766 21.8921L10.1097 15.8956L2.37405 8.29808C1.88151 7.81434 1.87438 7.02292 2.35812 6.53039C2.84186 6.03785 3.63328 6.03072 4.12582 6.51446L10.7499 13.0203L10.7499 2.25002C10.7499 1.75841 11.0381 1.31245 11.4863 1.11043ZM13.2499 18.5719L18.3097 22.5474C18.522 22.7142 18.522 23.0358 18.3097 23.2027L13.2499 27.1782L13.2499 18.5719ZM13.2499 13.6237L13.2499 5.02326L18.3233 9.50772C18.5263 9.6872 18.5067 10.0097 18.2834 10.1633L13.2499 13.6237Z" fill="white" fill-opacity="0.4"/>
<path fill-rule="evenodd" clip-rule="evenodd" d="M1.37501 1.16748C1.97288 0.822302 2.73737 1.02715 3.08254 1.62501L19.3325 29.7708C19.6777 30.3687 19.4729 31.1332 18.875 31.4784C18.2771 31.8235 17.5127 31.6187 17.1675 31.0208L0.91748 2.87501C0.572302 2.27715 0.777146 1.51266 1.37501 1.16748Z" fill="white"/>
</svg>