<svg width="11" height="11" viewBox="0 0 11 11" fill="none" xmlns="http://www.w3.org/2000/svg">
<path d="M10.2826 9.22193C10.4234 9.36282 10.5026 9.55392 10.5026 9.75318C10.5026 9.95243 10.4234 10.1435 10.2826 10.2844C10.1417 10.4253 9.95056 10.5045 9.7513 10.5045C9.55204 10.5045 9.36095 10.4253 9.22005 10.2844L5.25193 6.31505L1.28255 10.2832C1.14165 10.4241 0.950558 10.5032 0.751301 10.5032C0.552044 10.5032 0.360947 10.4241 0.220051 10.2832C0.0791548 10.1423 2.96917e-09 9.95118 0 9.75193C-2.96917e-09 9.55267 0.0791548 9.36157 0.220051 9.22068L4.18943 5.25255L0.221301 1.28318C0.0804046 1.14228 0.00125003 0.951183 0.00125003 0.751926C0.00125003 0.552669 0.0804046 0.361572 0.221301 0.220676C0.362197 0.0797797 0.553293 0.000624897 0.752551 0.000624895C0.951808 0.000624893 1.1429 0.0797797 1.2838 0.220676L5.25193 4.19005L9.2213 0.220051C9.3622 0.0791546 9.55329 -3.31963e-09 9.75255 0C9.95181 3.31963e-09 10.1429 0.0791546 10.2838 0.220051C10.4247 0.360947 10.5039 0.552043 10.5039 0.751301C10.5039 0.950558 10.4247 1.14165 10.2838 1.28255L6.31443 5.25255L10.2826 9.22193Z" fill="#D2D2D2"/>
</svg>
