<svg width="21" height="20" viewBox="0 0 21 20" fill="none" xmlns="http://www.w3.org/2000/svg">
<g clip-path="url(#clip0_3920_15)">
<path d="M7.125 16.875L14 16.875C15.0355 16.875 15.875 16.0355 15.875 15L15.875 7.5C15.875 6.46447 15.0249 5.66039 14.0497 6.00875C11.7197 6.84107 8.8159 8.75772 5.87418 9.00716C5.53024 9.03632 5.25 9.31391 5.25 9.65909L5.25 15C5.25 16.0355 6.08947 16.875 7.125 16.875Z" fill="#34C759"/>
<path d="M8.21886 11.1338L10.6918 7.31837C10.7765 7.18776 10.9792 7.24771 10.9792 7.40335V9.71875C10.9792 9.80504 11.0491 9.875 11.1354 9.875H12.775C12.8989 9.875 12.9735 10.0123 12.9061 10.1162L10.4332 13.9316C10.3485 14.0622 10.1458 14.0023 10.1458 13.8466V11.5312C10.1458 11.445 10.0759 11.375 9.98958 11.375H8.34997C8.22609 11.375 8.15148 11.2377 8.21886 11.1338Z" fill="white"/>
<path d="M7.59375 4.37501H6.8125C5.77697 4.37501 4.9375 5.21447 4.9375 6.25001V15C4.9375 16.0355 5.77697 16.875 6.8125 16.875H11.8819H14.3125C15.348 16.875 16.1875 16.0355 16.1875 15V6.25001C16.1875 5.21447 15.348 4.37501 14.3125 4.37501H13.0625M7.59375 4.37501H10.5625H13.0625M7.59375 4.37501V4.37501C7.59375 3.68465 8.1534 3.125 8.84376 3.125H11.8125C12.5029 3.125 13.0625 3.68465 13.0625 4.37501V4.37501" stroke="white" stroke-width="1.45" stroke-linecap="round" stroke-linejoin="round"/>
</g>
<defs>
<clipPath id="clip0_3920_15">
<rect width="20" height="20" fill="white" transform="translate(0.25)"/>
</clipPath>
</defs>
</svg>
