<svg xmlns="http://www.w3.org/2000/svg" width="21" height="20" viewBox="0 0 21 20" fill="none">
  <path d="M5.125 6.25V15C5.125 16.0355 5.96447 16.875 7 16.875H15.125C16.1605 16.875 17 16.0355 17 14.9999V6.2512C17 5.21567 16.1605 4.375 15.125 4.375H7C5.96447 4.375 5.125 5.21447 5.125 6.25Z" fill="#34C759"/>
  <path d="M8.71886 11.1338L11.1918 7.31837C11.2765 7.18776 11.4792 7.24771 11.4792 7.40335V9.71875C11.4792 9.80504 11.5491 9.875 11.6354 9.875H13.275C13.3989 9.875 13.4735 10.0123 13.4061 10.1162L10.9332 13.9316C10.8485 14.0622 10.6458 14.0023 10.6458 13.8466V11.5312C10.6458 11.445 10.5759 11.375 10.4896 11.375H8.84997C8.72609 11.375 8.65148 11.2377 8.71886 11.1338Z" fill="white"/>
  <path d="M8.09375 4.37501H7.3125C6.27697 4.37501 5.4375 5.21447 5.4375 6.25001V15C5.4375 16.0355 6.27697 16.875 7.3125 16.875H12.3819H14.8125C15.848 16.875 16.6875 16.0355 16.6875 15V6.25001C16.6875 5.21447 15.848 4.37501 14.8125 4.37501H13.5625M8.09375 4.37501H11.0625H13.5625M8.09375 4.37501V4.37501C8.09375 3.68465 8.6534 3.125 9.34376 3.125H12.3125C13.0029 3.125 13.5625 3.68465 13.5625 4.37501V4.37501" stroke="white" stroke-width="1.45" stroke-linecap="round" stroke-linejoin="round"/>
</svg>