<svg width="24" height="24" viewBox="0 0 24 24" fill="none" xmlns="http://www.w3.org/2000/svg">
<path d="M20.5 3H3.5V18.4054H6.59091L8.5 21L10.7121 18.4054H20.5V3Z" stroke="#696A6C" stroke-width="2.25" stroke-linecap="round" stroke-linejoin="bevel"/>
<path d="M10.7317 15.5C10.1178 15.5 9.56757 15.3969 9.08108 15.1908C8.59459 14.9733 8.20656 14.6641 7.91699 14.2634C7.639 13.8511 7.5 13.3531 7.5 12.7691C7.5 12.1851 7.639 11.6985 7.91699 11.3092C8.20656 10.9084 8.60039 10.6107 9.09846 10.416C9.60811 10.2099 10.1873 10.1069 10.8359 10.1069H13.1988V9.62595C13.1988 9.22519 13.0714 8.89886 12.8166 8.64695C12.5618 8.38359 12.1564 8.25191 11.6004 8.25191C11.056 8.25191 10.6506 8.37786 10.3842 8.62977C10.1178 8.87023 9.94402 9.18512 9.86293 9.57443L7.84749 8.90458C7.98649 8.46947 8.20656 8.07443 8.50772 7.71947C8.82046 7.35305 9.23166 7.06107 9.74131 6.84351C10.2625 6.6145 10.8938 6.5 11.6351 6.5C12.7703 6.5 13.668 6.78053 14.3282 7.3416C14.9884 7.90267 15.3185 8.71565 15.3185 9.78053V12.958C15.3185 13.3015 15.4807 13.4733 15.805 13.4733H16.5V15.2595H15.0405C14.612 15.2595 14.2587 15.1565 13.9807 14.9504C13.7027 14.7443 13.5637 14.4695 13.5637 14.126V14.1088H13.2336C13.1873 14.2462 13.083 14.4294 12.9208 14.6584C12.7587 14.876 12.5039 15.0706 12.1564 15.2424C11.8089 15.4141 11.334 15.5 10.7317 15.5ZM11.1139 13.7481C11.7278 13.7481 12.2259 13.5821 12.6081 13.25C13.0019 12.9065 13.1988 12.4542 13.1988 11.8931V11.7214H10.9923C10.5869 11.7214 10.2683 11.8073 10.0367 11.979C9.80502 12.1508 9.68919 12.3912 9.68919 12.7004C9.68919 13.0095 9.81081 13.2615 10.0541 13.4561C10.2973 13.6508 10.6506 13.7481 11.1139 13.7481Z" fill="#696A6C"/>
</svg>
