<svg width="21" height="20" viewBox="0 0 21 20" fill="none" xmlns="http://www.w3.org/2000/svg">
<g clip-path="url(#clip0_1405_591)">
<path d="M7.375 16.875L14.25 16.875C15.2855 16.875 16.125 16.0355 16.125 15L16.125 13.75C16.125 12.7145 15.2807 11.8942 14.2711 12.1245C11.9462 12.655 9.05423 13.8596 6.1247 14.017C5.78002 14.0355 5.5 14.3139 5.5 14.6591L5.5 15C5.5 16.0355 6.33947 16.875 7.375 16.875Z" fill="#FF8F1C"/>
<path d="M7.84375 4.37501H7.0625C6.02697 4.37501 5.1875 5.21447 5.1875 6.25001V15C5.1875 16.0355 6.02697 16.875 7.0625 16.875H12.1319H14.5625C15.598 16.875 16.4375 16.0355 16.4375 15V6.25001C16.4375 5.21447 15.598 4.37501 14.5625 4.37501H13.3125M7.84375 4.37501H10.8125H13.3125M7.84375 4.37501V4.37501C7.84375 3.68465 8.4034 3.125 9.09376 3.125H12.0625C12.7529 3.125 13.3125 3.68465 13.3125 4.37501V4.37501" stroke="white" stroke-width="1.45" stroke-linecap="round" stroke-linejoin="round"/>
</g>
<defs>
<clipPath id="clip0_1405_591">
<rect width="20" height="20" fill="white" transform="translate(0.5)"/>
</clipPath>
</defs>
</svg>
