<svg width="20" height="20" viewBox="0 0 20 20" fill="none" xmlns="http://www.w3.org/2000/svg">
<g clip-path="url(#clip0_1405_566)">
<path d="M6.875 16.875L13.75 16.875C14.7855 16.875 15.625 16.0355 15.625 15L15.625 7.5C15.625 6.46447 14.7749 5.66039 13.7997 6.00875C11.4697 6.84107 8.5659 8.75772 5.62418 9.00716C5.28024 9.03632 5 9.31391 5 9.65909L5 15C5 16.0355 5.83947 16.875 6.875 16.875Z" fill="#34C759"/>
<path d="M7.34375 4.37501H6.5625C5.52697 4.37501 4.6875 5.21447 4.6875 6.25001V15C4.6875 16.0355 5.52697 16.875 6.5625 16.875H11.6319H14.0625C15.098 16.875 15.9375 16.0355 15.9375 15V6.25001C15.9375 5.21447 15.098 4.37501 14.0625 4.37501H12.8125M7.34375 4.37501H10.3125H12.8125M7.34375 4.37501V4.37501C7.34375 3.68465 7.9034 3.125 8.59376 3.125H11.5625C12.2529 3.125 12.8125 3.68465 12.8125 4.37501V4.37501" stroke="white" stroke-width="1.45" stroke-linecap="round" stroke-linejoin="round"/>
</g>
<defs>
<clipPath id="clip0_1405_566">
<rect width="20" height="20" fill="white"/>
</clipPath>
</defs>
</svg>
