<svg xmlns="http://www.w3.org/2000/svg" width="32" height="33" viewBox="0 0 32 33" fill="none">
<path d="M14.3069 7.26433C14.8598 7.19988 15.4245 7.16675 15.9999 7.16675C22.2185 7.16675 27.1997 11.0369 29.3332 16.5001C28.8071 17.8473 28.1078 19.0976 27.2595 20.217M8.69273 9.19266C5.97263 10.8522 3.86805 13.4235 2.66656 16.5001C4.80008 21.9632 9.78128 25.8334 15.9999 25.8334C18.7167 25.8334 21.1972 25.0948 23.3074 23.8073M13.1716 13.6715C12.4477 14.3954 11.9999 15.3954 11.9999 16.5001C11.9999 18.7092 13.7908 20.5001 15.9999 20.5001C17.1045 20.5001 18.1046 20.0523 18.8285 19.3284" stroke="white" stroke-width="2.66667" stroke-linecap="round" stroke-linejoin="round"/>
<path d="M5.33301 5.8335L26.6663 27.1668" stroke="white" stroke-width="2.66667" stroke-linecap="round"/>
</svg>