<svg width="32" height="32" viewBox="0 0 32 32" fill="none" xmlns="http://www.w3.org/2000/svg">
<g clip-path="url(#clip0_1403_365)">
<path d="M27.7367 10.6667C27.9108 12.4209 28 14.2 28 16C28 17.8 27.9108 19.5792 27.7367 21.3334" stroke="#696A6C" stroke-width="2" stroke-linecap="round"/>
<path d="M17.3333 16C17.3333 13.4878 17.1162 11.0262 16.6997 8.63316C16.5363 7.69451 15.451 7.27522 14.6737 7.82622L11.3595 10.1755C10.9088 10.4951 10.3699 10.6667 9.81737 10.6667H6.66667C5.19391 10.6667 4 11.8606 4 13.3334V18.6667C4 20.1394 5.19391 21.3334 6.66666 21.3334H9.81737C10.3699 21.3334 10.9088 21.505 11.3595 21.8245L14.6737 24.1738C15.451 24.7248 16.5363 24.3055 16.6997 23.3669C17.1162 20.9738 17.3333 18.5123 17.3333 16Z" stroke="white" stroke-width="2" stroke-linejoin="round"/>
<path d="M22.5023 12C22.6111 13.3189 22.6666 14.653 22.6666 16C22.6666 17.347 22.6111 18.6811 22.5023 20" stroke="#696A6C" stroke-width="2" stroke-linecap="round"/>
<path d="M4 6L24 26" stroke="white" stroke-width="2" stroke-linecap="round"/>
</g>
<defs>
<clipPath id="clip0_1403_365">
<rect width="32" height="32" fill="white"/>
</clipPath>
</defs>
</svg>
