<svg xmlns="http://www.w3.org/2000/svg" width="32" height="32" viewBox="0 0 32 32" fill="none">
  <path d="M15 20.4C17.4301 20.4 19.4 18.4301 19.4 16C19.4 13.5699 17.4301 11.6 15 11.6C12.5699 11.6 10.6 13.5699 10.6 16C10.6 18.4301 12.5699 20.4 15 20.4Z" fill="white"/>
  <path d="M15 8.3V5M15 27V23.7M7.3 16H4M26 16H22.7M9.5553 21.4447L7.22185 23.7782M22.7782 8.22183L20.4447 10.5553M9.5553 10.5553L7.22185 8.22182M22.7782 23.7782L20.4447 21.4447M19.4 16C19.4 18.4301 17.4301 20.4 15 20.4C12.5699 20.4 10.6 18.4301 10.6 16C10.6 13.5699 12.5699 11.6 15 11.6C17.4301 11.6 19.4 13.5699 19.4 16Z" stroke="white" stroke-width="2" stroke-linecap="round" stroke-linejoin="round"/>
</svg>