<svg xmlns="http://www.w3.org/2000/svg" width="32" height="32" viewBox="0 0 32 32" fill="none">
  <path d="M16 21.3333C18.9455 21.3333 21.3334 18.9455 21.3334 16C21.3334 13.0545 18.9455 10.6667 16 10.6667C13.0545 10.6667 10.6667 13.0545 10.6667 16C10.6667 18.9455 13.0545 21.3333 16 21.3333Z" fill="#FAFBFC"/>
  <path d="M16 6.66667V2.66667M16 29.3333V25.3333M6.66669 16H2.66669M29.3334 16H25.3334M9.40039 22.5997L6.57196 25.4281M25.4281 6.57192L22.5997 9.40035M9.40039 9.40033L6.57196 6.5719M25.4281 25.4281L22.5997 22.5997M21.3334 16C21.3334 18.9455 18.9455 21.3333 16 21.3333C13.0545 21.3333 10.6667 18.9455 10.6667 16C10.6667 13.0545 13.0545 10.6667 16 10.6667C18.9455 10.6667 21.3334 13.0545 21.3334 16Z" stroke="#FAFBFC" stroke-width="2" stroke-linecap="round" stroke-linejoin="round"/>
</svg>