<svg xmlns="http://www.w3.org/2000/svg" width="32" height="32" viewBox="0 0 32 32" fill="none">
  <path d="M14.0749 19.8516L15.3016 21.9764C15.6698 22.6141 16.4853 22.8326 17.123 22.4644L20.4978 20.516C21.1356 20.1478 21.3541 19.3324 20.9859 18.6946L19.7591 16.5698M14.0749 19.8516L11.3334 15.1031C10.9652 14.4654 11.1837 13.65 11.8214 13.2818L15.1962 11.3333C15.8339 10.9651 16.6494 11.1836 17.0176 11.8214L19.7591 16.5698M14.0749 19.8516L19.7591 16.5698" stroke="#FAFBFC" stroke-width="2"/>
  <path d="M8.13602 4.34836L12.0363 5.39342L10.9912 9.29367M12.7191 28.8466C6.25699 27.1151 2.42207 20.4728 4.15359 14.0106C5.13849 10.335 7.71219 7.50929 10.9378 6.07451" stroke="#FAFBFC" stroke-width="2" stroke-linecap="round" stroke-linejoin="round"/>
  <path d="M25.235 29.0436L21.2918 28.1744L22.161 24.2312M19.5585 4.77541C26.0918 6.21557 30.2205 12.6793 28.7804 19.2125C27.9612 22.9287 25.5167 25.8669 22.3586 27.4448" stroke="#FAFBFC" stroke-width="2" stroke-linecap="round" stroke-linejoin="round"/>
</svg>