<svg xmlns="http://www.w3.org/2000/svg" width="32" height="32" viewBox="0 0 32 32" fill="none">
  <path d="M13 7.59998H10C8.67452 7.59998 7.6 8.6745 7.6 9.99999V22C7.6 23.3255 8.67452 24.4 10 24.4H22C23.3255 24.4 24.4 23.3255 24.4 22V9.99999C24.4 8.6745 23.3255 7.59998 22 7.59998H19M13 7.59998V3.99998M13 7.59998H19M19 7.59998V3.99998M28 12.4H24.4V18.4H28M4 12.4H7.6L7.6 18.4H4M13.6 28V24.4H19.6V28M13.5993 19.6007H18.3993C19.0621 19.6007 19.5993 19.0634 19.5993 18.4007V13.6007C19.5993 12.9379 19.0621 12.4007 18.3993 12.4007H13.5993C12.9366 12.4007 12.3993 12.9379 12.3993 13.6007V18.4007C12.3993 19.0634 12.9366 19.6007 13.5993 19.6007Z" stroke="#C5C8CF" stroke-width="2" stroke-linecap="round" stroke-linejoin="round"/>
</svg>