<svg xmlns="http://www.w3.org/2000/svg" width="32" height="32" viewBox="0 0 32 32" fill="none">
  <path d="M14.3068 6.76427C14.8597 6.69982 15.4245 6.66669 15.9998 6.66669C22.2185 6.66669 27.1997 10.5369 29.3332 16C28.8071 17.3472 28.1078 18.5976 27.2594 19.7169M8.69267 8.6926C5.97257 10.3521 3.86799 12.9235 2.6665 16C4.80002 21.4632 9.78122 25.3334 15.9998 25.3334C18.7166 25.3334 21.1972 24.5947 23.3073 23.3072M13.1715 13.1715C12.4476 13.8953 11.9998 14.8954 11.9998 16C11.9998 18.2092 13.7907 20 15.9998 20C17.1045 20 18.1045 19.5523 18.8284 18.8283" stroke="white" stroke-width="2.66667" stroke-linecap="round" stroke-linejoin="round"/>
  <path d="M5.33301 5.3335L26.6663 26.6668" stroke="white" stroke-width="2.66667" stroke-linecap="round"/>
</svg>