<svg width="36" height="36" viewBox="0 0 36 36" fill="none" xmlns="http://www.w3.org/2000/svg">
<path opacity="0.2" d="M29.3906 11.3906L24.75 15.75L29.25 28.125L25.875 31.5L19.125 21.375L15.75 24.75V28.125L12.375 31.5L10.125 25.875L4.5 23.625L7.875 20.25H11.25L14.625 16.875L4.5 10.125L7.875 6.74999L20.25 11.25L24.6094 6.60937C25.2434 5.97534 26.1033 5.61914 27 5.61914C27.8967 5.61914 28.7566 5.97534 29.3906 6.60937C30.0247 7.2434 30.3809 8.10334 30.3809 8.99999C30.3809 9.89665 30.0247 10.7566 29.3906 11.3906Z" fill="#D2D2D2"/>
<path d="M26.062 16.0608L30.1599 12.2034L30.1838 12.1809C31.0278 11.3369 31.5019 10.1922 31.5019 8.99859C31.5019 7.80498 31.0278 6.66026 30.1838 5.81625C29.3398 4.97224 28.195 4.49808 27.0014 4.49808C25.8078 4.49808 24.6631 4.97224 23.8191 5.81625L23.7966 5.84015L19.9392 9.93797L8.26735 5.69109C8.06618 5.61792 7.84832 5.60367 7.63933 5.65C7.43034 5.69633 7.23891 5.80132 7.08751 5.95265L3.71251 9.32765C3.5949 9.44535 3.50487 9.58768 3.44889 9.74436C3.39292 9.90105 3.3724 10.0682 3.38881 10.2338C3.40522 10.3994 3.45815 10.5592 3.54379 10.7019C3.62943 10.8445 3.74565 10.9664 3.88407 11.0587L12.8686 17.048L10.7845 19.125H7.87501C7.57704 19.1251 7.29129 19.2435 7.08048 19.4541L3.70548 22.8291C3.57386 22.9604 3.47683 23.1222 3.42306 23.3002C3.3693 23.4782 3.36049 23.6667 3.3974 23.8489C3.43432 24.0311 3.51582 24.2014 3.63461 24.3444C3.7534 24.4874 3.90579 24.5987 4.07814 24.6684L9.25595 26.7398L11.3231 31.9078L11.3316 31.9303C11.4031 32.1034 11.5167 32.2559 11.6621 32.374C11.8075 32.4921 11.98 32.572 12.1641 32.6065C12.3482 32.641 12.538 32.629 12.7163 32.5716C12.8946 32.5141 13.0557 32.4131 13.185 32.2777L16.5417 28.9195C16.6468 28.8155 16.7303 28.6918 16.7874 28.5554C16.8446 28.4191 16.8744 28.2728 16.875 28.125V25.2155L18.9506 23.1398L24.9399 32.1244C25.0322 32.2628 25.1541 32.379 25.2967 32.4647C25.4394 32.5503 25.5992 32.6032 25.7648 32.6196C25.9304 32.636 26.0975 32.6155 26.2542 32.5596C26.4109 32.5036 26.5532 32.4135 26.6709 32.2959L30.0459 28.9209C30.1973 28.7695 30.3023 28.5781 30.3486 28.3691C30.3949 28.1601 30.3807 27.9423 30.3075 27.7411L26.062 16.0608ZM26.0522 29.7337L20.063 20.7492C19.971 20.61 19.8492 20.493 19.7065 20.4066C19.5637 20.3203 19.4035 20.2668 19.2375 20.25C19.2005 20.2479 19.1634 20.2479 19.1264 20.25C18.9786 20.2499 18.8323 20.2789 18.6957 20.3353C18.5591 20.3918 18.435 20.4746 18.3305 20.5791L14.9555 23.9541C14.8508 24.0585 14.7677 24.1826 14.711 24.3191C14.6543 24.4557 14.6251 24.6021 14.625 24.75V27.6595L12.787 29.4975L11.1699 25.4531C11.1133 25.3127 11.0289 25.1852 10.9219 25.0781C10.8148 24.9711 10.6873 24.8867 10.5469 24.8302L6.50532 23.213L8.34189 21.375H11.25C11.3978 21.3751 11.5441 21.3461 11.6807 21.2897C11.8173 21.2332 11.9414 21.1504 12.0459 21.0459L15.4209 17.6709C15.5388 17.5532 15.6291 17.4108 15.6852 17.254C15.7413 17.0972 15.7619 16.9298 15.7455 16.7641C15.7291 16.5983 15.6761 16.4382 15.5903 16.2955C15.5045 16.1527 15.388 16.0307 15.2494 15.9384L6.26626 9.94781L8.1647 8.05078L19.8675 12.3061C20.0737 12.3819 20.2976 12.3956 20.5115 12.3456C20.7254 12.2956 20.92 12.1841 21.0713 12.0248L25.4222 7.40109C25.8495 7.00974 26.4112 6.79831 26.9905 6.81082C27.5698 6.82333 28.1219 7.05882 28.5319 7.46825C28.9418 7.87767 29.178 8.42948 29.1913 9.00873C29.2046 9.58798 28.9939 10.15 28.6031 10.5778L23.9808 14.9287C23.8215 15.08 23.71 15.2746 23.66 15.4885C23.61 15.7024 23.6238 15.9263 23.6995 16.1325L27.9549 27.8353L26.0522 29.7337Z" fill="#D2D2D2"/>
</svg>
