<svg width="40" height="40" viewBox="0 0 40 40" fill="none" xmlns="http://www.w3.org/2000/svg">
<path fill-rule="evenodd" clip-rule="evenodd" d="M19.9995 6.99989C25.5603 6.97897 30.973 8.79253 35.3988 12.1592C35.6292 12.3347 35.8223 12.5552 35.9659 12.8067C36.1093 13.0581 36.2011 13.3359 36.235 13.6234C36.2683 13.9105 36.2421 14.2014 36.1588 14.4782C36.0755 14.755 35.9363 15.0121 35.75 15.2332L21.6668 32.2185C21.4638 32.4637 21.2085 32.6606 20.9203 32.7957C20.6322 32.9307 20.3177 33.0005 19.9995 32.9997C19.6804 33.0013 19.3645 32.9325 19.0753 32.7974C18.7862 32.6623 18.5307 32.4643 18.3271 32.2185L4.24391 15.2332C4.05862 15.0117 3.92009 14.7549 3.83766 14.4782C3.75524 14.2014 3.73084 13.9102 3.76488 13.6234C3.79874 13.336 3.88977 13.0581 4.03317 12.8067C4.17671 12.5552 4.36983 12.3347 4.60022 12.1592C9.02607 8.79246 14.4387 6.97901 19.9995 6.99989ZM19.9995 9.16654C14.9199 9.1466 9.97519 10.8004 5.92899 13.8714L12.3045 21.5545C14.484 20.0286 17.1378 19.1331 20.0004 19.1331C22.7459 19.1332 25.2991 19.9571 27.4262 21.3709C27.5167 21.431 27.6064 21.4923 27.6954 21.5545L34.0709 13.8714C30.0246 10.8003 25.0793 9.14652 19.9995 9.16654Z" fill="#4892F1"/>
</svg>
