<svg xmlns="http://www.w3.org/2000/svg" width="21" height="20" viewBox="0 0 21 20" fill="none">
  <path fill-rule="evenodd" clip-rule="evenodd" d="M18.0481 9.83701C17.4958 9.83701 17.0481 10.2847 17.0481 10.837L17.0481 14.4308C17.0481 14.983 17.4958 15.4308 18.0481 15.4308C18.6004 15.4308 19.0481 14.983 19.0481 14.4308L19.0481 10.837C19.0481 10.2847 18.6004 9.83701 18.0481 9.83701ZM19.0481 16.9123C19.0481 16.36 18.6004 15.9123 18.0481 15.9123H18.0432C17.4909 15.9123 17.0432 16.36 17.0432 16.9123V16.9172C17.0432 17.4695 17.4909 17.9172 18.0432 17.9172H18.0481C18.6004 17.9172 19.0481 17.4695 19.0481 16.9172V16.9123Z" fill="#696A6C"/>
  <path fill-rule="evenodd" clip-rule="evenodd" d="M1.95262 7.55065C1.58972 7.13433 1.63303 6.50265 2.04935 6.13975C4.4605 4.03797 7.46953 2.98766 10.4754 2.98749L10.4791 2.98749C13.4849 2.98766 16.494 4.03797 18.9051 6.13975C19.3215 6.50265 19.3648 7.13433 19.0019 7.55065C18.639 7.96697 18.0073 8.01027 17.591 7.64737C15.5574 5.87471 13.0198 4.98764 10.479 4.98749H10.4755C7.9347 4.98764 5.39712 5.87471 3.36352 7.64737C2.94721 8.01027 2.31552 7.96697 1.95262 7.55065ZM4.45156 10.6315C4.08157 10.2215 4.11403 9.58913 4.52406 9.21913C6.21293 7.69516 8.34575 6.93358 10.4754 6.93339L10.479 6.93339C12.6086 6.93358 14.7416 7.69516 16.4304 9.21913C16.8405 9.58913 16.8729 10.2215 16.5029 10.6315C16.1329 11.0415 15.5006 11.074 15.0906 10.704C13.783 9.52406 12.1326 8.93354 10.4789 8.93339H10.4755C8.82188 8.93354 7.17151 9.52406 5.86392 10.704C5.45389 11.074 4.82156 11.0415 4.45156 10.6315ZM6.3418 12.965L6.97887 12.3279C7.9442 11.3626 9.21136 10.8795 10.4753 10.8793H10.4791C11.743 10.8795 13.0103 11.3626 13.9756 12.3279L14.6127 12.965L11.2558 17.1052C11.0659 17.3394 10.7805 17.4754 10.479 17.4754H10.4754C10.1739 17.4754 9.88857 17.3394 9.6987 17.1052L6.3418 12.965ZM9.11602 13.2109L10.4772 14.8898L11.8385 13.2109C11.4141 12.9899 10.9471 12.8794 10.4788 12.8793L10.4756 12.8793C10.0075 12.8794 9.54034 12.9899 9.11602 13.2109Z" fill="#696A6C"/>
</svg>